<svg width="19" height="26" viewBox="0 0 19 26" fill="none" xmlns="http://www.w3.org/2000/svg">
<path d="M17.6718 8.8468C17.6217 8.24531 17.3711 7.69395 16.9701 7.29296C16.5691 6.89197 16.0428 6.64135 15.4162 6.64135H14.0879V5.4885C14.0879 4.2354 13.5867 3.10761 12.7597 2.30563C11.9326 1.47859 10.8048 0.977348 9.5768 0.977348C8.3237 0.977348 7.19591 1.47859 6.39393 2.30563C5.56689 3.10761 5.06565 4.2354 5.06565 5.4885V6.64135H3.73736C3.11081 6.64135 2.58451 6.89197 2.18352 7.29296C1.78253 7.69395 1.53191 8.24531 1.48179 8.8468L0.153503 23.6835C0.153503 23.7587 0.153503 23.8338 0.153503 23.8589C0.153503 24.4103 0.379061 24.9366 0.780052 25.3125C1.15598 25.6634 1.65722 25.914 2.18352 25.9641H2.20858C2.28377 25.9641 2.35896 25.9641 2.40908 25.9641H16.7445C16.7946 25.9641 16.8698 25.9641 16.945 25.9641C17.4964 25.914 17.9976 25.6634 18.3735 25.3125C18.7745 24.9366 19.0001 24.4103 19.0001 23.8338C19.0001 23.7837 19.0001 23.7336 19.0001 23.6584L17.6718 8.8468ZM6.44405 5.4885C6.44405 4.61133 6.79492 3.83441 7.37135 3.25799C7.94777 2.68156 8.72469 2.33069 9.60186 2.33069C10.479 2.33069 11.2559 2.68156 11.8324 3.25799C12.4088 3.83441 12.7597 4.61133 12.7597 5.4885V6.64135H6.44405V5.4885ZM17.5966 23.8589C17.5966 24.0594 17.5214 24.2348 17.3711 24.3601C17.2207 24.5105 16.9951 24.6108 16.7946 24.6358C16.7946 24.6358 16.7696 24.6358 16.7195 24.6358H2.40908C2.35896 24.6358 2.33389 24.6358 2.33389 24.6358H2.30883C2.08327 24.6108 1.88278 24.5105 1.73241 24.3601C1.58203 24.2348 1.50685 24.0594 1.50685 23.8589V23.7837L2.83513 8.97211C2.86019 8.69643 2.9855 8.44581 3.16094 8.27038C3.31131 8.12 3.51181 8.01976 3.73736 8.01976H5.06565V11.0773C5.06565 11.4532 5.36639 11.754 5.74232 11.754C6.11825 11.754 6.41899 11.4532 6.41899 11.0773V8.01976H12.6845V11.0773C12.6845 11.4532 12.9852 11.754 13.3612 11.754C13.7371 11.754 14.0378 11.4532 14.0378 11.0773V8.01976H15.3661C15.5917 8.01976 15.7922 8.12 15.9425 8.27038C16.118 8.44581 16.2433 8.69643 16.2683 8.97211L17.5966 23.8088V23.8589Z" fill="black"/>
</svg>
