<svg width="134" height="88" viewBox="0 0 134 88" fill="none" xmlns="http://www.w3.org/2000/svg">
<path d="M24.4883 24.5H30.4383V46.83H45.4883V49H24.4883V24.5ZM55.4116 49.35C52.915 49.35 51.0366 48.895 49.7766 47.985C48.54 47.0517 47.9216 45.745 47.9216 44.065C47.9216 42.2917 48.6566 40.9267 50.1266 39.97C51.5966 39.0133 53.72 38.535 56.4966 38.535H61.0816V37.38C61.0816 36.0733 60.72 35.07 59.9966 34.37C59.2733 33.67 58.235 33.32 56.8816 33.32C55.5516 33.32 54.49 33.6583 53.6966 34.335C52.9266 35.0117 52.4483 36.0033 52.2616 37.31H48.4116C48.6683 35.42 49.5666 33.985 51.1066 33.005C52.6466 32.0017 54.735 31.5 57.3716 31.5C60.265 31.5 62.47 32.0367 63.9866 33.11C65.5033 34.1833 66.2616 35.735 66.2616 37.765V43.295C66.2616 45.4183 66.4366 47.32 66.7866 49H61.9566C61.7233 48.1133 61.56 47.3317 61.4666 46.655C60.79 47.6117 59.915 48.3 58.8416 48.72C57.7916 49.14 56.6483 49.35 55.4116 49.35ZM56.4966 47.6C57.9433 47.6 59.0633 47.215 59.8566 46.445C60.6733 45.6517 61.0816 44.6017 61.0816 43.295V40.355H57.9666C56.4033 40.355 55.2016 40.6817 54.3616 41.335C53.5216 41.965 53.1016 42.8633 53.1016 44.03C53.1016 45.22 53.3816 46.1183 53.9416 46.725C54.525 47.3083 55.3766 47.6 56.4966 47.6ZM69.107 31.85H74.427L80.832 44.17L87.202 31.85H90.317L81.567 49.35H78.382L69.107 31.85ZM98.5464 49.35C96.0497 49.35 94.1714 48.895 92.9114 47.985C91.6747 47.0517 91.0564 45.745 91.0564 44.065C91.0564 42.2917 91.7914 40.9267 93.2614 39.97C94.7314 39.0133 96.8547 38.535 99.6314 38.535H104.216V37.38C104.216 36.0733 103.855 35.07 103.131 34.37C102.408 33.67 101.37 33.32 100.016 33.32C98.6864 33.32 97.6247 33.6583 96.8314 34.335C96.0614 35.0117 95.5831 36.0033 95.3964 37.31H91.5464C91.8031 35.42 92.7014 33.985 94.2414 33.005C95.7814 32.0017 97.8697 31.5 100.506 31.5C103.4 31.5 105.605 32.0367 107.121 33.11C108.638 34.1833 109.396 35.735 109.396 37.765V43.295C109.396 45.4183 109.571 47.32 109.921 49H105.091C104.858 48.1133 104.695 47.3317 104.601 46.655C103.925 47.6117 103.05 48.3 101.976 48.72C100.926 49.14 99.7831 49.35 98.5464 49.35ZM99.6314 47.6C101.078 47.6 102.198 47.215 102.991 46.445C103.808 45.6517 104.216 44.6017 104.216 43.295V40.355H101.101C99.5381 40.355 98.3364 40.6817 97.4964 41.335C96.6564 41.965 96.2364 42.8633 96.2364 44.03C96.2364 45.22 96.5164 46.1183 97.0764 46.725C97.6597 47.3083 98.5114 47.6 99.6314 47.6ZM33.8742 79L29.1642 73.1C29.0442 73.1067 28.8609 73.11 28.6142 73.11C27.9542 73.11 27.1809 73.0767 26.2942 73.01V79H24.0742V64.55C25.5875 64.21 27.1509 64.04 28.7642 64.04C30.9575 64.04 32.5842 64.4 33.6442 65.12C34.7042 65.8333 35.2342 66.9733 35.2342 68.54C35.2342 69.6733 34.9142 70.6 34.2742 71.32C33.6409 72.04 32.7009 72.5433 31.4542 72.83L36.4242 79H33.8742ZM26.2942 71.31C26.7475 71.3567 27.1442 71.39 27.4842 71.41C27.8309 71.43 28.2375 71.44 28.7042 71.44C30.2375 71.44 31.3542 71.21 32.0542 70.75C32.7542 70.2833 33.1042 69.5567 33.1042 68.57C33.1042 67.87 32.9575 67.31 32.6642 66.89C32.3775 66.47 31.9275 66.1667 31.3142 65.98C30.7075 65.7933 29.9075 65.7 28.9142 65.7C28.4142 65.7 27.9642 65.72 27.5642 65.76C27.1642 65.8 26.7409 65.86 26.2942 65.94V71.31ZM42.8367 79.2C41.7234 79.2 40.7534 78.99 39.9267 78.57C39.1067 78.15 38.47 77.52 38.0167 76.68C37.57 75.84 37.3467 74.8 37.3467 73.56C37.3467 72.3333 37.5667 71.3033 38.0067 70.47C38.4534 69.63 39.0867 69 39.9067 68.58C40.7267 68.16 41.7034 67.95 42.8367 67.95C44.57 67.95 45.9167 68.4233 46.8767 69.37C47.8367 70.31 48.3167 71.7067 48.3167 73.56C48.3167 74.78 48.09 75.8133 47.6367 76.66C47.1834 77.5 46.5434 78.1333 45.7167 78.56C44.8967 78.9867 43.9367 79.2 42.8367 79.2ZM42.8367 77.44C45.01 77.44 46.0967 76.15 46.0967 73.57C46.0967 72.23 45.8167 71.2533 45.2567 70.64C44.6967 70.02 43.89 69.71 42.8367 69.71C41.7834 69.71 40.9734 70.0167 40.4067 70.63C39.8467 71.2433 39.5667 72.2167 39.5667 73.55C39.5667 76.1433 40.6567 77.44 42.8367 77.44ZM54.8736 67.95C56.0202 67.95 56.9536 68.0867 57.6736 68.36C58.3936 68.6267 58.9336 69.0733 59.2936 69.7C59.6536 70.3267 59.8336 71.18 59.8336 72.26V79H57.9736L57.8136 77.83H57.6936C57.2869 78.2567 56.7736 78.59 56.1536 78.83C55.5336 79.0633 54.8736 79.18 54.1736 79.18C53.3736 79.18 52.6902 79.0567 52.1236 78.81C51.5569 78.5567 51.1269 78.2033 50.8336 77.75C50.5402 77.2967 50.3936 76.7633 50.3936 76.15C50.3936 75.1833 50.7536 74.4367 51.4736 73.91C52.2002 73.3767 53.3536 73.04 54.9336 72.9L57.6536 72.63V72.11C57.6536 71.47 57.5436 70.97 57.3236 70.61C57.1036 70.25 56.7702 69.9967 56.3236 69.85C55.8836 69.7033 55.2969 69.63 54.5636 69.63C54.0569 69.63 53.5069 69.6733 52.9136 69.76C52.3269 69.8467 51.7636 69.9767 51.2236 70.15V68.49C51.7569 68.3167 52.3469 68.1833 52.9936 68.09C53.6469 67.9967 54.2736 67.95 54.8736 67.95ZM54.7636 77.64C55.2969 77.64 55.8136 77.5467 56.3136 77.36C56.8136 77.1667 57.2602 76.88 57.6536 76.5V73.95L55.1036 74.2C54.2169 74.3 53.5836 74.4933 53.2036 74.78C52.8236 75.06 52.6336 75.46 52.6336 75.98C52.6336 76.5067 52.8102 76.9167 53.1636 77.21C53.5169 77.4967 54.0502 77.64 54.7636 77.64ZM66.3158 79.2C64.9491 79.2 63.7091 79.04 62.5958 78.72V77.11C63.7891 77.4433 65.0324 77.61 66.3258 77.61C67.3258 77.61 68.0458 77.4767 68.4858 77.21C68.9258 76.9367 69.1458 76.54 69.1458 76.02C69.1458 75.74 69.0958 75.51 68.9958 75.33C68.8958 75.1433 68.7258 74.99 68.4858 74.87C68.2458 74.7433 67.9158 74.6467 67.4958 74.58L65.5658 74.28C64.4458 74.1 63.6358 73.76 63.1358 73.26C62.6424 72.76 62.3958 72.09 62.3958 71.25C62.3958 70.23 62.8158 69.4267 63.6558 68.84C64.5024 68.2467 65.7924 67.95 67.5258 67.95C68.0724 67.95 68.6158 67.9867 69.1558 68.06C69.7024 68.1267 70.2058 68.2267 70.6658 68.36V69.96C69.6524 69.68 68.6091 69.54 67.5358 69.54C66.4358 69.54 65.6591 69.6833 65.2058 69.97C64.7524 70.2567 64.5258 70.6533 64.5258 71.16C64.5258 71.54 64.6424 71.85 64.8758 72.09C65.1091 72.3233 65.5258 72.4933 66.1258 72.6L68.0558 72.9C69.1691 73.0733 69.9858 73.3933 70.5058 73.86C71.0258 74.3267 71.2858 75.0033 71.2858 75.89C71.2858 76.5767 71.0991 77.1667 70.7258 77.66C70.3591 78.1533 69.8024 78.5333 69.0558 78.8C68.3158 79.0667 67.4024 79.2 66.3158 79.2ZM79.0217 77.38C79.235 77.38 79.4517 77.3667 79.6717 77.34C79.8917 77.3133 80.165 77.2667 80.4917 77.2V78.96C79.8117 79.12 79.135 79.2 78.4617 79.2C77.1217 79.2 76.1017 78.8733 75.4017 78.22C74.7017 77.5667 74.3517 76.58 74.3517 75.26V69.91H72.1817V68.12H74.3517L74.7317 64.2H76.5717V68.12H80.3417V69.91H76.5717V74.85C76.5717 75.75 76.7717 76.3967 77.1717 76.79C77.5717 77.1833 78.1884 77.38 79.0217 77.38ZM91.7631 74.22H83.8731C83.9131 75.0067 84.0831 75.6433 84.3831 76.13C84.6831 76.61 85.1331 76.9633 85.7331 77.19C86.3331 77.4167 87.1031 77.53 88.0431 77.53C88.9764 77.53 90.0098 77.3867 91.1431 77.1V78.75C89.9631 79.05 88.8264 79.2 87.7331 79.2C85.7064 79.2 84.1864 78.7433 83.1731 77.83C82.1664 76.91 81.6631 75.4933 81.6631 73.58C81.6631 72.38 81.8664 71.36 82.2731 70.52C82.6798 69.68 83.2664 69.0433 84.0331 68.61C84.8064 68.17 85.7364 67.95 86.8231 67.95C88.4231 67.95 89.6464 68.44 90.4931 69.42C91.3398 70.3933 91.7631 71.8 91.7631 73.64V74.22ZM86.7931 69.42C85.8598 69.42 85.1464 69.7033 84.6531 70.27C84.1598 70.83 83.8964 71.7 83.8631 72.88H89.6731C89.6464 71.7 89.3931 70.83 88.9131 70.27C88.4331 69.7033 87.7264 69.42 86.7931 69.42ZM94.2653 68.12H96.0953L96.2653 69.51H96.3953C96.7886 69.0367 97.2953 68.6667 97.9153 68.4C98.542 68.1333 99.1953 68 99.8753 68C100.262 68 100.625 68.0333 100.965 68.1V70.09C100.639 70.03 100.239 70 99.7653 70C99.1786 70 98.582 70.1133 97.9753 70.34C97.3686 70.5667 96.872 70.9033 96.4853 71.35V79H94.2653V68.12ZM105.984 79.2C104.617 79.2 103.377 79.04 102.264 78.72V77.11C103.457 77.4433 104.7 77.61 105.994 77.61C106.994 77.61 107.714 77.4767 108.154 77.21C108.594 76.9367 108.814 76.54 108.814 76.02C108.814 75.74 108.764 75.51 108.664 75.33C108.564 75.1433 108.394 74.99 108.154 74.87C107.914 74.7433 107.584 74.6467 107.164 74.58L105.234 74.28C104.114 74.1 103.304 73.76 102.804 73.26C102.31 72.76 102.064 72.09 102.064 71.25C102.064 70.23 102.484 69.4267 103.324 68.84C104.17 68.2467 105.46 67.95 107.194 67.95C107.74 67.95 108.284 67.9867 108.824 68.06C109.37 68.1267 109.874 68.2267 110.334 68.36V69.96C109.32 69.68 108.277 69.54 107.204 69.54C106.104 69.54 105.327 69.6833 104.874 69.97C104.42 70.2567 104.194 70.6533 104.194 71.16C104.194 71.54 104.31 71.85 104.544 72.09C104.777 72.3233 105.194 72.4933 105.794 72.6L107.724 72.9C108.837 73.0733 109.654 73.3933 110.174 73.86C110.694 74.3267 110.954 75.0033 110.954 75.89C110.954 76.5767 110.767 77.1667 110.394 77.66C110.027 78.1533 109.47 78.5333 108.724 78.8C107.984 79.0667 107.07 79.2 105.984 79.2Z" fill="#3D3017"/>
<path d="M27.6303 17.5571C30.6186 16.9169 32.9117 13.231 32.9117 8.77955C32.9117 4.32808 30.6186 0.64223 27.6303 0.00334946C27.5228 -0.0199296 27.424 0.0809463 27.424 0.210274V17.3501" fill="#3D3017"/>
<path d="M26.3337 17.3501V0.210277C26.3337 0.079656 26.2349 -0.0199266 26.1274 0.00335247C23.1391 0.643526 20.846 4.32938 20.846 8.78085C20.846 13.2323 23.1378 16.9182 26.1274 17.5583" fill="#3D3017"/>
<path d="M37.2466 21.6723C40.0999 22.7936 43.9472 20.9597 46.2603 17.2053C48.5734 13.4509 48.5546 9.06796 46.3653 6.86809C46.2865 6.7892 46.1515 6.81895 46.084 6.92887L37.1803 21.3839" fill="#3D3017"/>
<path d="M36.2614 20.7773L45.165 6.32232C45.2325 6.21239 45.2012 6.07272 45.0987 6.03263C42.2455 4.91135 38.3982 6.74523 36.0851 10.4996C33.7719 14.254 33.7907 18.6369 35.98 20.8368" fill="#3D3017"/>
<path d="M16.7549 21.6723C13.9016 22.7936 10.0543 20.9597 7.74121 17.2053C5.42809 13.4509 5.44685 9.06796 7.63618 6.86809C7.71495 6.7892 7.84999 6.81895 7.91751 6.92887L16.8211 21.3839" fill="#3D3017"/>
<path d="M17.7402 20.7773L8.83652 6.32233C8.769 6.2124 8.80026 6.07272 8.90279 6.03263C11.7561 4.91136 15.6033 6.74523 17.9165 10.5009C20.2296 14.2553 20.2108 18.6382 18.0215 20.8381" fill="#3D3017"/>
</svg>
