<svg width="154" height="124" viewBox="0 0 154 124" fill="none" xmlns="http://www.w3.org/2000/svg">
<g opacity="0.4" clip-path="url(#clip0_82_73)">
<path d="M154 64.5497C153.471 71.4587 152.976 78.4006 152.414 85.3096C152.084 89.3234 151.357 93.2714 149.97 97.0549C148.979 99.7856 147.724 102.385 146.039 104.753C143.76 107.912 141.48 111.103 139.102 114.163C136.592 117.387 133.42 119.92 129.655 121.467C126.318 122.848 122.85 123.967 119.15 124.033C117.598 124.066 116.012 123.868 114.492 123.572C112.279 123.145 110.099 122.552 107.919 121.993C107.456 121.861 106.994 121.73 106.532 121.532C103.36 120.019 100.354 118.242 97.8108 115.775C96.7868 114.788 95.994 113.604 95.4985 112.288C94.6727 110.149 93.9129 108.011 93.1531 105.839C92.4925 103.964 91.8648 102.023 91.1712 100.18C89.0901 94.7848 88.3303 89.2247 88.6276 83.4343C89.024 75.5383 90.7748 67.9713 93.3513 60.5359C95.1681 55.3048 97.8769 50.633 101.973 46.7837C103.162 45.6651 104.252 44.4149 105.441 43.2634C106.532 42.2435 107.622 41.2565 108.844 40.3682C111.486 38.46 114.36 36.9137 117.399 35.6964C119.381 34.8739 121.462 34.4133 123.61 34.3475C124.799 34.3146 126.021 34.2488 127.21 34.1172C129.556 33.8211 131.802 34.0843 133.982 34.8739C137.285 36.0583 140.456 37.5059 143.099 39.9405C147.162 43.6911 150.829 47.672 152.348 53.1992C153.306 56.884 153.934 60.6675 154 64.5497ZM121.396 115.907C121.694 115.841 122.024 115.742 122.387 115.709C123.246 115.643 123.808 115.183 124.336 114.492C125.294 113.209 126.384 112.024 127.441 110.807C128.366 109.754 129.39 108.767 130.249 107.682C131.802 105.74 133.288 103.734 134.775 101.76C136.129 99.9501 137.384 98.1077 138.111 95.9363C138.309 95.3441 138.408 94.7848 138.045 94.2255C137.55 93.4359 137.748 92.745 138.21 91.9883C138.574 91.3961 138.838 90.7052 139.069 90.0472C139.498 88.797 139.631 87.481 139.598 86.1321C139.565 83.0066 140.027 79.9798 141.282 77.0846C141.811 75.9002 142.042 74.5513 142.306 73.2682C142.538 72.2483 142.174 71.3929 141.249 70.7678C140.192 70.044 140.027 69.3531 140.919 68.5306C142.174 67.3133 142.769 65.8657 143.132 64.2207C143.165 64.0233 143.363 63.8588 143.495 63.6614C144.321 65.2735 143.925 67.8397 142.637 69.5834C144.354 71.2942 144.652 72.018 144.586 74.5842C144.586 75.1106 144.52 75.637 144.42 76.1305C143.859 79.2889 143.264 82.4144 143.231 85.6715C143.198 88.5996 142.141 91.2645 139.73 93.1727C139.631 93.2385 139.598 93.3701 139.498 93.5017C141.15 96.4956 140.093 99.3908 138.97 102.253C139.532 103.108 139.598 103.141 139.498 104.161C139.333 105.642 139.069 107.089 138.838 108.57C138.772 108.998 138.673 109.425 138.574 109.853C139.234 109.359 139.664 108.833 139.697 108.043C139.862 105.872 139.994 103.734 140.258 101.562C140.456 99.8843 140.721 98.2393 141.018 96.5614C141.117 96.035 141.381 95.5415 141.58 95.0151C141.811 95.1138 141.91 95.1467 142.042 95.1796C142.141 95.2125 142.24 95.1796 142.339 95.1796C142.571 91.5606 142.604 91.3632 143.396 90.5736C143.892 91.0342 144.024 91.6922 144.123 92.3173C144.52 94.6532 144.519 97.022 144.255 99.3908C144.123 100.378 144.024 101.398 143.892 102.385C143.991 102.418 144.09 102.45 144.189 102.45C144.387 102.023 144.619 101.628 144.718 101.2C144.85 100.608 144.916 100.016 144.916 99.4237C144.883 97.2852 144.784 95.1796 144.751 93.0411C144.718 90.771 144.685 88.468 144.652 86.1979C144.652 85.9676 144.784 85.7373 144.982 85.2109C145.444 86.3624 145.808 87.2178 146.171 88.1061C146.27 87.7113 146.204 87.3494 146.204 87.0204C146.105 85.1451 145.709 83.2698 146.072 81.3945C146.171 80.8023 146.237 80.1772 147.063 80.1772C147.03 79.7495 146.964 79.4534 146.964 79.1244C146.931 77.6439 146.898 76.1634 146.931 74.6829C146.931 73.9591 147.03 73.2682 147.889 73.005C147.823 72.6102 147.724 72.2812 147.691 71.9851C147.592 70.4388 147.492 68.8596 147.426 67.3133C147.393 66.8198 147.526 66.2934 147.459 65.7999C147.261 63.8917 146.997 61.9835 146.799 60.0753C146.766 59.7463 146.832 59.4173 146.898 59.0225C147.228 59.2528 147.426 59.3515 147.691 59.5489C147.492 58.4303 147.393 57.4433 147.129 56.4892C146.865 55.5022 146.402 54.5481 146.105 53.5611C145.808 52.6399 145.147 51.8503 145.081 50.633C147.658 51.7516 148.186 54.3178 149.772 56.226C149.706 55.8312 149.673 55.6009 149.64 55.4035C148.616 51.4226 146.468 48.0668 144.09 44.8097C141.58 41.3223 138.276 38.9864 134.213 37.6375C133.189 37.3085 132.198 37.1111 130.943 37.0453C131.835 37.802 132.694 38.3613 133.354 39.118C135.138 41.2236 136.988 43.2963 139.036 45.1716C139.465 45.5664 139.829 45.9612 140.225 46.356C141.315 47.4746 142.075 48.7577 142.471 50.2711C143.165 52.936 143.264 55.6667 143.198 58.3974C143.198 58.8909 143.066 59.3515 142.967 59.845C142.868 59.845 142.769 59.845 142.67 59.845C142.538 59.4173 142.372 58.9567 142.306 58.529C141.811 56.1602 141.48 53.7914 140.82 51.4884C139.961 48.3629 138.375 45.6651 135.501 43.8556C134.973 43.5266 134.477 43.066 133.982 42.6712C132.429 41.5197 130.91 40.3353 129.357 39.2167C128.201 38.3942 126.847 38.1968 125.459 37.9994C125.294 37.9665 125.03 37.9994 124.898 38.131C123.742 39.0193 122.519 39.8089 121.495 40.7959C120.306 41.9145 120.24 43.2634 121 44.6781C121.495 45.5993 121.859 46.5534 121.958 47.6391C122.09 49.0538 122.354 49.317 123.775 49.5144C124.039 49.3499 124.468 49.3499 124.865 49.317C125.922 49.2841 126.946 49.1854 128.003 49.1525C128.829 49.1196 129.622 49.1854 130.547 49.7776C130.084 49.8763 129.919 49.9092 129.721 49.975C127.97 50.4027 126.186 50.7975 124.468 51.3239C122.784 51.8503 122.354 52.5412 122.553 54.3178C122.718 55.8641 122.453 57.2788 121.694 58.5948C121.429 59.0554 121.198 59.516 121 59.9766C120.372 61.3584 120.207 62.7402 120.736 64.1878C121.33 65.8328 121.991 67.4778 122.619 69.1228C122.685 69.3202 122.85 69.4518 123.048 69.715C123.18 67.2804 122.255 64.9445 123.213 62.6744C123.444 63.0363 123.61 63.3982 123.61 63.793C123.742 66.3263 123.841 68.8267 123.973 71.36C124.006 71.8206 124.072 72.3141 124.237 72.7089C124.667 73.7288 125.393 74.5513 126.285 75.1764C126.979 75.6699 127.64 76.1963 128.3 76.7227C128.565 76.953 128.862 77.1833 128.598 77.7426C127.144 77.0517 125.856 76.1963 124.568 75.3738C123.246 74.5184 121.991 73.4985 120.802 72.5773C120.174 73.7946 119.547 75.0777 118.886 76.3608C118.027 77.94 117.829 79.5192 118.489 81.23C119.249 83.1382 119.381 85.1122 118.985 87.152C118.82 87.9416 118.721 88.7312 118.589 89.5208C118.192 92.2844 117.697 95.0809 117.432 97.8445C117.168 100.476 117.069 103.141 116.97 105.773C116.937 106.958 117.003 108.175 117.102 109.359C117.168 109.886 117.333 110.478 117.664 110.906C118.82 112.617 120.108 114.229 121.396 115.907ZM104.913 111.037C104.913 110.774 104.913 110.511 104.913 110.215C104.88 108.899 104.748 107.55 104.814 106.234C104.88 105.017 105.144 103.799 105.375 102.582C105.408 102.385 105.772 102.121 105.97 102.121C106.135 102.121 106.432 102.45 106.465 102.681C106.598 103.24 106.631 103.799 106.631 104.359C106.664 106.76 106.631 109.162 106.631 111.564C107.721 112.617 109.075 113.373 110.595 113.9C112.378 114.558 113.634 115.775 114.393 117.552C114.724 118.374 115.186 119.131 115.682 119.855C115.88 120.151 116.276 120.447 116.607 120.513C118.027 120.809 119.447 120.71 120.934 120.447C120.802 120.249 120.769 120.151 120.703 120.052C118.258 117.288 115.781 114.525 113.336 111.761C111.453 109.623 110.198 107.221 110 104.326C109.967 103.832 109.868 103.372 109.802 102.911C109.108 98.9631 108.414 95.0151 107.721 91.0671C107.622 90.5407 107.655 90.0143 107.622 89.4879C107.688 89.455 107.787 89.455 107.853 89.4221C108.15 89.7511 108.447 90.113 108.91 90.6065C108.414 87.8758 107.192 85.5399 107.324 82.9079C108.58 84.5858 109.174 86.5269 109.769 88.468C110.363 90.4091 110.859 92.3831 111.387 94.3242C111.486 94.3242 111.553 94.2913 111.652 94.2913C111.486 92.9095 111.453 91.4948 111.123 90.1459C110.396 86.9546 109.504 83.7633 108.712 80.572C108.447 79.5521 108.315 78.5322 108.183 77.4794C108.117 77.0846 108.018 76.624 108.48 76.2621C109.538 77.4136 109.769 78.8612 110.264 80.2101C110.76 81.559 111.189 82.9079 111.652 84.2568C111.718 84.2239 111.817 84.2239 111.883 84.191C111.751 83.4343 111.685 82.6447 111.453 81.888C110.694 79.4205 110.76 77.0517 112.147 74.8145C112.378 74.4526 112.378 74.1236 112.279 73.6959C111.982 72.5444 111.718 71.36 111.619 70.1756C111.453 68.6293 111.486 67.0501 111.387 65.5038C111.288 64.0562 110.727 62.7731 110.033 61.5558C109.438 60.5359 108.414 60.2398 107.324 60.7004C106.928 60.8649 106.532 61.1281 106.234 61.4571C105.64 62.0822 105.111 62.8389 104.516 63.464C103.757 64.2536 103.691 65.0432 104.186 66.0302C104.55 66.7869 104.682 67.7081 104.748 68.5964C104.847 69.8795 104.781 71.1626 104.814 72.4457C104.814 73.1695 104.913 73.8933 104.88 74.6171C104.847 74.979 104.55 75.308 104.252 75.9002C104.318 76.4924 104.417 77.4136 104.483 78.3348C104.516 79.256 104.88 80.1772 104.45 81.0984C103.823 81.0326 103.757 80.6049 103.691 80.2101C103.492 78.7954 103.294 77.3478 103.129 75.9331C103.03 75.2422 103.195 74.6829 103.955 74.5513C103.757 72.7747 103.592 71.0968 103.36 69.4189C103.096 67.4778 101.51 66.4579 99.6937 66.9843C97.4474 67.6423 93.5165 71.7548 92.9549 74.0249C92.9219 74.2223 92.8558 74.4197 92.8228 74.6171C92.03 78.6967 91.6997 82.8092 91.7657 86.9546C91.8318 90.1788 92.4594 93.3372 93.4504 96.3969C93.4835 96.4956 93.5826 96.5943 93.7477 96.9233C94.1772 93.7978 94.6396 90.9355 96.5225 88.5667C96.6216 89.2247 96.5886 89.8498 96.5225 90.4749C96.2582 94.39 95.9609 98.3051 95.6967 102.22C95.6306 103.043 95.9279 103.799 96.5225 104.556C96.6216 98.3709 98.1411 91.758 99.9579 89.8827C100.024 90.2775 100.123 90.5736 100.09 90.8697C99.9579 91.7909 99.8258 92.7121 99.6276 93.6004C98.6366 98.1735 98.3393 102.812 98.1081 107.451C98.042 108.504 98.1411 108.636 98.9669 108.998C99.066 107.188 99.066 105.346 99.2642 103.536C99.5285 100.838 100.321 98.2722 101.444 95.8047C101.643 95.377 101.775 94.8177 102.568 94.6532C102.468 97.3839 101.643 99.8513 101.411 102.45C101.18 105.082 100.718 107.649 100.52 110.346C101.312 110.511 101.973 110.643 102.733 110.84C102.667 110.116 102.7 109.524 102.601 108.998C102.27 107.056 102.336 105.148 102.7 103.24C102.931 101.957 103.36 100.674 103.724 99.4237C103.856 98.9959 104.054 98.5024 104.748 98.5683C104.814 98.8643 104.913 99.1605 104.88 99.4237C104.748 102.187 104.583 104.951 104.45 107.714C104.384 108.603 104.285 109.458 104.219 110.346C104.021 110.906 104.252 111.169 104.913 111.037ZM113.006 40.4669C110.793 41.6184 108.844 42.8357 107.192 44.4478C105.507 46.1257 103.823 47.7707 102.237 49.5473C101.213 50.6988 100.387 52.0477 99.4624 53.3308C99.0991 53.8243 99.0991 54.3178 99.3633 54.91C100.123 56.6866 100.784 58.4632 101.544 60.2398C102.006 61.3584 102.535 62.477 103.096 63.7601C103.592 63.0034 103.955 62.4441 104.252 62.0164C103.955 60.9636 103.658 60.0424 103.426 59.1212C103.36 58.858 103.327 58.529 103.426 58.2987C103.526 58.0684 103.79 57.871 103.988 57.8052C104.12 57.7723 104.384 58.0355 104.45 58.2329C104.583 58.6606 104.616 59.0883 104.715 59.516C104.814 60.0095 104.814 60.503 105.045 60.8649C106.069 60.2069 106.994 59.5489 107.985 59.0554C109.108 58.529 110.264 58.9896 111.354 59.3186C111.916 57.8052 111.883 57.7723 110.826 56.8182C110.066 56.1273 109.207 55.6338 108.249 55.3377C107.126 54.9758 106.333 54.1862 105.706 53.2321C105.541 52.9689 105.507 52.5083 105.64 52.2451C105.838 51.8174 106.3 51.8174 106.697 51.9819C107.093 52.1464 107.523 52.3438 107.853 52.607C108.745 53.2321 109.571 53.923 110.429 54.581C110.925 54.9758 111.42 55.4035 112.18 55.239C112.246 55.0416 112.312 54.8442 112.312 54.6468C112.345 54.4165 112.312 54.1533 112.279 53.923C111.817 51.3239 112.18 48.7906 113.105 46.356C113.865 44.382 113.039 42.5725 113.006 40.4669ZM120.967 50.8962C119.679 49.8434 119.447 49.317 119.547 47.9023C119.58 47.6062 119.613 47.343 119.646 47.0798C119.745 46.2244 119.547 45.4348 119.084 44.5794C117.366 47.3101 116.97 50.304 116.441 53.265C116.838 52.936 117.135 52.5412 117.532 52.1793C117.73 51.9819 118.159 51.7516 118.324 51.8174C118.589 51.9819 118.787 52.3438 118.82 52.6399C118.853 53.1005 118.754 53.594 118.655 54.0546C118.258 56.2589 117.565 58.3974 116.673 60.4701C116.21 61.5229 115.913 62.6415 115.55 63.7272C115.616 63.7601 115.715 63.793 115.781 63.8259C115.979 63.3653 116.177 62.9047 116.441 62.477C116.706 62.0493 116.739 61.3913 117.498 61.1939C117.3 62.3454 117.135 63.3982 116.904 64.451C116.507 66.3263 115.946 68.2016 115.649 70.0769C115.318 71.9851 114.922 73.8604 114.228 75.6699C114.096 75.9989 113.964 76.3937 113.997 76.7227C114.195 78.4006 114.426 80.0785 114.691 82.0196C115.384 81.1642 115.88 80.5391 116.342 79.9798C116.541 78.5651 116.64 77.2162 116.904 75.9002C117.135 74.7487 117.498 73.663 117.829 72.5444C118.721 69.4518 119.117 66.3592 118.291 63.1679C118.093 62.4112 118.06 61.5558 118.225 60.7991C118.523 59.3515 119.051 57.9697 119.447 56.555C119.646 55.897 119.91 55.239 119.943 54.581C120.009 53.2321 120.174 51.9819 120.967 50.8962ZM116.574 82.1183C116.012 83.1711 115.583 84.1581 115.021 85.0464C113.7 87.152 112.907 89.455 112.544 91.8896C112.18 94.3571 111.883 96.8246 111.553 99.2592C111.156 102.418 112.477 105.017 114.459 107.32C114.459 106.793 114.36 106.3 114.294 105.806C113.667 101.825 114.129 97.8774 114.559 93.9294C114.889 91.0013 115.682 88.1061 116.276 85.2109C116.474 84.2568 116.706 83.2698 116.574 82.1183ZM98.3724 55.8312C96.4895 59.9437 95.2342 64.2207 94.2102 68.5964C96.027 67.1817 97.7778 65.7341 100.09 65.0432C99.033 63.2337 98.9009 61.3913 99.066 59.4831C99.1651 58.2329 99.066 57.0156 98.3724 55.8312ZM129.985 113.077C128.895 113.735 128.135 114.525 127.441 115.38C126.186 116.894 124.799 118.177 122.751 118.44C122.751 119.098 122.751 119.657 122.751 120.381C124.766 119.855 126.781 119.46 128.664 118.703C128.961 118.571 129.225 118.407 129.522 118.242C129.886 118.045 130.018 117.782 130.018 117.354C129.952 116.005 129.985 114.591 129.985 113.077ZM121.495 37.0453C118.919 37.6375 116.574 38.6245 114.261 39.8418C114.393 40.2366 114.492 40.5327 114.625 40.8288C115.021 41.7171 115.021 41.7171 115.979 41.5197C116.805 41.3552 117.631 41.2236 118.456 40.9933C118.82 40.8946 119.249 40.6972 119.447 40.434C120.141 39.3483 120.769 38.2626 121.495 37.0453ZM138.012 104.523C137.946 104.49 137.913 104.49 137.847 104.457C136.757 105.971 135.667 107.484 134.61 109.03C134.444 109.294 134.477 109.688 134.477 110.05C134.444 111.169 134.477 112.255 134.444 113.373C134.444 113.702 134.378 114.031 134.312 114.459C135.634 113.636 135.865 113.34 136.162 112.189C136.492 110.741 136.856 109.327 137.186 107.879C137.483 106.76 137.748 105.642 138.012 104.523ZM131.504 116.729C132.363 116.268 132.429 116.301 132.462 115.775C132.628 114.196 132.76 112.649 132.925 110.939C132.165 111.498 131.504 111.991 130.976 112.419C131.141 113.9 131.306 115.281 131.504 116.729ZM141.447 105.872C141.513 105.905 141.613 105.938 141.679 105.971C142.009 105.51 142.339 105.05 142.538 104.786C142.471 104.128 142.405 103.701 142.405 103.306C142.405 102.286 142.405 101.233 142.405 100.213C142.372 100.213 142.372 100.213 142.372 100.213C142.042 102.056 141.745 103.964 141.447 105.872ZM110.264 95.1138C110.165 95.1138 110.066 95.1138 109.967 95.1138C110.066 96.2653 110.198 97.4497 110.297 98.6012C111.09 97.3839 110.396 96.2653 110.264 95.1138ZM116.64 43.4279C116.012 43.5266 115.616 43.6253 115.153 43.6911C115.318 44.2504 115.45 44.6452 115.649 45.3032C116.045 44.5794 116.276 44.1188 116.64 43.4279ZM150.168 67.5765C150.333 68.4319 150.532 69.2544 150.697 70.1098C151.159 69.1228 150.928 68.3003 150.168 67.5765ZM147.129 95.377C147.195 95.377 147.261 95.377 147.327 95.377C147.294 94.7848 147.261 94.1597 147.228 93.5675C147.195 93.5675 147.162 93.5675 147.129 93.5675C147.129 94.1597 147.129 94.7848 147.129 95.377Z" fill="#B89577" fill-opacity="0.5"/>
<path d="M137.351 69.0569C138.607 70.2742 138.243 72.0179 138.739 73.5313C139.201 72.8733 138.739 71.8863 139.796 71.4915C139.895 71.8534 140.06 72.1824 140.093 72.4785C140.126 73.8603 140.126 75.275 140.159 76.6897C140.159 77.3148 139.829 77.4793 139.3 77.6109C138.772 77.7425 138.408 77.578 138.243 77.0845C137.483 75.1105 136.724 73.1365 136.559 70.998C136.526 70.34 136.426 69.5175 137.351 69.0569Z" fill="#B89577" fill-opacity="0.5"/>
<path d="M128.796 73.9262C128.168 74.0907 127.673 73.9262 127.441 73.3011C126.847 71.6561 126.483 69.9782 126.748 68.2345C126.781 68.1029 126.88 67.9713 127.045 67.6094C127.309 67.9713 127.541 68.1687 127.607 68.399C127.772 69.0899 127.805 69.8137 127.937 70.5375C128.069 71.36 128.036 72.2154 128.565 73.0379C128.73 71.2942 127.772 69.5505 129.093 68.0371C129.754 68.3003 129.754 68.8596 129.82 69.2873C130.117 71.36 130.348 73.3998 130.613 75.4725C130.679 75.9002 130.91 76.5253 130.216 76.6569C129.556 76.7556 129.523 76.1305 129.357 75.7028C129.159 75.1435 128.994 74.5842 128.796 73.9262Z" fill="#B89577" fill-opacity="0.5"/>
<path d="M123.477 45.3032C123.279 46.1915 123.676 47.1127 122.982 47.8694C122.42 46.9811 122.189 44.9742 122.387 42.8028C122.453 42.079 122.453 42.079 123.015 41.4539C123.444 41.9474 123.444 41.9474 123.61 43.0331C123.742 42.9344 123.841 42.8357 123.94 42.7699C124.039 42.7041 124.138 42.6712 124.369 42.5396C124.502 42.8357 124.7 43.1318 124.7 43.395C124.667 45.0729 124.601 46.7837 124.435 48.5603C123.544 47.9681 123.544 47.9352 123.477 45.3032Z" fill="#B89577" fill-opacity="0.5"/>
<path d="M136.195 76.8543C135.997 76.5582 135.766 76.3279 135.7 76.0647C135.138 73.7288 134.544 71.3929 134.048 69.057C133.883 68.2674 133.751 67.412 134.345 66.5237C134.544 66.7869 134.808 66.9514 134.874 67.1488C135.171 68.1029 135.468 69.057 135.634 70.044C135.964 71.8206 136.228 73.5972 136.525 75.3738C136.592 75.8344 136.757 76.3279 136.195 76.8543Z" fill="#B89577" fill-opacity="0.5"/>
<path d="M125.36 63.6284C125.559 63.9903 125.757 64.1877 125.79 64.3851C126.021 67.3461 126.219 70.3071 126.417 73.2681C126.417 73.3997 126.252 73.5313 126.12 73.7616C125.195 73.0378 125.261 72.0179 125.129 71.1625C124.832 68.7279 123.94 66.2275 125.36 63.6284Z" fill="#B89577" fill-opacity="0.5"/>
<path d="M122.85 94.5215C123.048 95.0479 123.213 95.3769 123.279 95.7388C123.643 98.0089 124.006 100.312 124.336 102.582C124.369 102.779 124.237 103.108 124.105 103.141C123.94 103.207 123.61 103.108 123.477 102.977C123.246 102.714 123.048 102.385 122.982 102.023C122.619 100.312 122.255 98.6011 121.991 96.8574C121.859 95.8375 122.123 95.3111 122.85 94.5215Z" fill="#B89577" fill-opacity="0.5"/>
<path d="M120.108 95.5085C120.339 96.2323 120.571 96.7258 120.637 97.2522C120.967 99.292 121.264 101.365 121.595 103.405C121.628 103.569 121.661 103.734 121.628 103.865C121.562 104.03 121.429 104.227 121.297 104.293C121.198 104.326 120.967 104.227 120.901 104.128C120.736 103.865 120.571 103.569 120.505 103.273C120.108 101.496 119.679 99.6868 119.381 97.8773C119.183 97.1206 119.15 96.2981 120.108 95.5085Z" fill="#B89577" fill-opacity="0.5"/>
<path d="M133.156 75.0447C133.057 74.7815 132.925 74.4854 132.892 74.2222C132.495 71.985 132.132 69.7149 131.769 67.4777C131.703 67.0829 131.67 66.6881 131.736 66.2933C131.769 66.063 132.033 65.8656 132.198 65.6682C132.396 65.8327 132.661 65.9314 132.793 66.1617C132.925 66.3591 132.991 66.6223 132.991 66.8526C133.255 69.1556 133.52 71.4586 133.751 73.7616C133.784 74.1893 133.652 74.6499 133.586 75.0776C133.42 75.0447 133.288 75.0447 133.156 75.0447Z" fill="#B89577" fill-opacity="0.5"/>
<path d="M124.006 94.9821C124.105 94.4228 123.841 93.699 124.535 93.6003C125.261 93.5016 125.228 94.2583 125.36 94.7189C125.592 95.6072 125.724 96.5284 125.988 97.4167C126.252 98.3708 126.649 99.292 126.946 100.246C127.012 100.444 126.88 100.674 126.847 100.871C126.649 100.805 126.417 100.773 126.219 100.707C126.153 100.674 126.087 100.608 126.054 100.509C125.162 98.7327 124.27 96.9232 124.006 94.9821Z" fill="#B89577" fill-opacity="0.5"/>
<path d="M136.228 54.9099C134.808 54.7783 132.958 53.0347 132.925 51.8832C132.925 51.62 133.09 51.2251 133.288 51.0935C133.486 50.9949 133.883 51.1264 134.147 51.2251C134.312 51.2909 134.411 51.5212 134.544 51.6528C135.204 52.3437 135.865 53.0017 136.492 53.7255C136.658 53.9229 136.856 54.2848 136.79 54.5151C136.724 54.7454 136.327 54.877 136.228 54.9099Z" fill="#B89577" fill-opacity="0.5"/>
<path d="M126.483 95.2783C126.616 95.0809 126.715 94.719 126.946 94.6203C127.375 94.4229 127.607 94.7848 127.772 95.1138C127.904 95.4099 128.036 95.706 128.135 96.0021C128.498 97.022 128.862 98.0419 129.159 99.0618C129.225 99.2592 129.126 99.4895 129.126 99.7198C128.895 99.654 128.498 99.6869 128.399 99.5224C127.507 98.2722 126.847 96.9233 126.483 95.2783Z" fill="#B89577" fill-opacity="0.5"/>
<path d="M131.868 97.4496C130.778 96.8574 129.985 96.0678 129.291 95.1466C129.192 95.015 129.159 94.7847 129.159 94.5873C129.159 94.1596 129.622 93.8964 129.886 94.2254C130.646 95.1466 131.339 96.1007 132.033 97.0548C132.066 97.0877 132 97.1864 131.868 97.4496Z" fill="#B89577" fill-opacity="0.5"/>
<path d="M130.646 47.8037C129.787 47.9024 129.589 47.3431 129.39 46.8496C128.928 45.7968 128.961 45.1388 129.489 44.3821C130.282 44.7111 129.919 45.4678 130.084 46.0271C130.282 46.5535 130.447 47.1128 130.646 47.8037Z" fill="#B89577" fill-opacity="0.5"/>
<path d="M127.574 47.0797C126.384 46.2901 125.955 44.3819 126.616 43.3291C127.078 43.9213 127.243 44.5793 127.574 47.0797Z" fill="#B89577" fill-opacity="0.5"/>
<path d="M132.991 94.8176C133.751 94.8505 134.345 94.9492 134.808 95.4427C133.85 96.0349 133.354 95.8704 132.991 94.8176Z" fill="#B89577" fill-opacity="0.5"/>
<path d="M132.958 96.2654C131.967 95.9693 131.835 95.7719 132 94.752C132.859 94.9494 132.628 95.8048 132.958 96.2654Z" fill="#B89577" fill-opacity="0.5"/>
<path d="M131.67 45.5664C131.802 45.8625 131.901 46.1586 132.066 46.5534C131.438 46.2244 131.438 46.2244 131.67 45.5664Z" fill="#B89577" fill-opacity="0.5"/>
<path d="M102.435 79.8154C102.237 80.1115 102.105 80.4405 101.94 80.4734C101.742 80.4734 101.411 80.276 101.312 80.0457C101.015 79.3877 100.817 78.6968 100.553 78.0388C100.123 76.8215 99.6606 75.6371 99.2642 74.4198C99.1321 74.025 98.9339 73.4986 99.4624 73.2354C99.991 72.9722 100.288 73.4986 100.42 73.8605C101.114 75.8345 101.775 77.8085 102.435 79.8154Z" fill="#B89577" fill-opacity="0.5"/>
<path d="M97.6126 71.1296C98.3063 71.9521 98.9009 74.0248 99.2312 76.7226C99.2643 76.9858 99.1982 77.2819 99.1652 77.6767C98.3724 77.0845 98.2402 76.7884 97.5465 73.5642C97.3814 72.7417 97.051 71.9192 97.6126 71.1296Z" fill="#B89577" fill-opacity="0.5"/>
<path d="M106.135 81.9538C106.003 81.8551 105.739 81.7564 105.706 81.6248C105.408 80.4733 105.144 79.3218 104.913 78.1374C104.88 77.9729 105.144 77.6768 105.342 77.5452C105.408 77.5123 105.805 77.7426 105.871 77.9071C106.234 79.1902 106.432 80.5062 106.465 81.8222C106.366 81.888 106.267 81.9209 106.135 81.9538Z" fill="#B89577" fill-opacity="0.5"/>
<path d="M107.291 77.6768C107.853 78.927 107.952 80.0127 107.754 81.1971C106.895 80.6049 106.598 78.7625 107.291 77.6768Z" fill="#B89577" fill-opacity="0.5"/>
<path d="M110.363 46.9154C110.33 47.1786 110.297 47.6721 110.165 48.1327C110.132 48.2643 109.868 48.4288 109.736 48.4288C109.604 48.4288 109.372 48.1985 109.372 48.0669C109.24 47.1128 109.141 46.1916 109.108 45.2375C109.108 45.0072 109.372 44.6124 109.571 44.5466C110 44.415 110.198 44.8098 110.231 45.2046C110.297 45.6981 110.297 46.1916 110.363 46.9154Z" fill="#B89577" fill-opacity="0.5"/>
<path d="M104.649 51.1594C105.111 52.8373 105.408 54.4823 105.673 56.2918C104.814 55.6009 104.351 54.252 104.12 52.2451C104.054 51.9161 103.889 51.4884 104.649 51.1594Z" fill="#B89577" fill-opacity="0.5"/>
<path d="M52.1922 69.8138C45.6847 70.077 39.3423 69.0571 33.1982 66.9186C31.2162 66.2277 29.3003 65.4052 27.3513 64.6485C22.7928 62.839 18.6306 60.3715 14.6006 57.6079C13.2462 56.6538 12.057 55.5352 10.967 54.285C7.20119 49.9422 4.16215 45.1059 1.84984 39.9077C-0.991005 33.5251 -0.462477 27.2741 2.90689 21.1876C4.26125 18.7201 6.1111 16.7132 8.45644 15.134C10.9009 13.4561 12.8498 11.2518 14.7988 9.04752C16.2192 7.43542 18.003 6.58002 20.1171 6.25102C21.4054 6.05362 22.033 5.26402 21.8679 3.94803C21.7357 3.19133 22.033 2.73073 22.5615 2.27013C23.6516 1.34893 24.9069 0.690928 26.3273 0.493528C27.7477 0.296129 29.1351 0.0658288 30.5225 2.88454e-05C32.042 -0.0328711 33.5616 0.0658288 35.0811 0.197429C38.6156 0.493528 42.1501 0.822528 45.5856 1.64503C52.3904 3.29003 58.5015 6.31682 63.8528 10.8241C64.5135 11.3834 65.1411 12.0414 65.7027 12.6994C69.6006 17.3054 73.3003 22.043 76.6036 27.0767C76.7688 27.3399 76.9339 27.636 77.1652 27.8663C79.6757 30.7615 80.8318 34.216 81.3604 37.9337C81.8558 41.3882 81.7568 44.8098 81.2613 48.2314C81.1291 49.1197 81.03 49.9751 80.8649 50.8305C79.973 55.3378 77.7267 59.1871 73.9279 61.7533C70.5255 64.0563 67.2552 66.6883 63.2913 68.103C61.012 68.9255 58.6997 69.5835 56.2552 69.5506C54.9339 69.6164 53.5796 69.748 52.1922 69.8138ZM35.3453 3.25713C34.3213 3.19133 33.1982 3.05973 32.0751 3.09263C29.3994 3.09263 26.7898 3.55323 24.2793 4.57312C24.015 4.67182 23.6516 4.90212 23.6186 5.13242C23.3543 6.44842 23.1231 7.76442 22.8919 9.11332C23.1892 9.24492 23.3543 9.34362 23.5525 9.40942C26.5585 10.3964 29.3003 11.8769 32.042 13.4232C33.8919 14.476 35.8739 15.3314 37.8558 16.0881C40.9609 17.3054 44.0991 18.3911 47.006 20.1019C48.9549 21.2534 50.5736 22.6681 51.9609 24.4447C53.2823 26.1555 54.5706 27.9321 56.2883 29.281C58.1381 30.7615 60.021 32.2091 61.8378 33.7225C63.0931 34.7753 64.3814 35.8281 65.4384 37.1112C66.8919 38.8878 68.1141 40.8289 69.4354 42.6713C70.8228 44.6124 71.5826 46.7838 71.7147 49.1526C71.7808 50.1396 71.9129 51.1595 71.979 52.1465C71.979 52.311 71.8468 52.5084 71.6817 52.9032C71.1862 51.7517 70.7898 50.7976 70.3604 49.8435C69.4024 47.705 68.3123 45.6652 66.5285 44.0531C64.9099 42.6055 63.3573 41.0921 61.7718 39.6116C61.3754 39.2497 61.012 38.9207 60.5826 38.5917C58.4354 37.0783 56.5856 35.2359 54.967 33.1632C52.9189 30.4983 50.2763 28.6559 46.973 27.8992C44.3634 27.307 42.018 26.2213 39.9369 24.6092C39.6396 24.4447 39.3093 24.2144 38.8138 23.8525C38.9459 24.5763 39.045 24.9711 39.1111 25.3988C39.2432 26.5832 39.8048 27.5044 40.7297 28.2611C41.4234 28.8204 42.051 29.4455 42.6787 30.0377C43.7027 30.9918 44.6937 31.9788 45.7838 32.9987C45.8498 31.9459 45.3543 31.1563 45.057 30.3338C44.8588 29.7745 44.7598 29.2481 45.2552 28.7546C45.6516 28.3598 46.2462 28.3927 46.9399 28.8204C47.9309 29.4784 48.8558 30.2022 49.4174 31.255C50.0781 32.4723 50.7387 33.7225 51.2673 35.0385C51.6306 35.8939 52.0931 36.5848 52.9189 37.0125C53.3814 37.2428 53.8108 37.5718 54.2072 37.9008C55.8588 39.3484 57.5105 40.8289 59.1622 42.3094C59.4594 42.5726 59.6576 42.9674 60.1201 43.5596C59.3934 43.4938 58.9309 43.5267 58.5345 43.3951C57.2462 42.9674 55.9579 42.5068 54.6697 42.0133C53.7117 41.6185 52.7868 41.0592 51.8288 40.7302C50.3423 40.2038 48.988 39.5787 48.0961 38.2956C46.4775 38.6575 45.8498 38.3285 45.2552 36.8151C45.2222 36.7493 45.2222 36.6506 45.1892 36.5848C44.7928 35.7952 44.4294 34.9727 43.967 34.2489C42.976 32.7026 41.5225 31.584 40.1021 30.4654C38.5826 29.3797 37.2943 28.1624 36.3363 26.5832C35.6096 25.3659 34.3213 24.9053 33.0661 24.4118C32.2402 24.0828 31.4805 24.4447 30.7207 24.7079C29.1351 25.333 27.4504 25.4975 25.7658 25.333C24.4114 25.2014 23.057 25.1685 21.6697 25.4317C22.0661 25.7936 22.4625 26.1226 22.9249 26.2871C24.2462 26.7806 25.5676 27.2412 26.9219 27.636C29.1351 28.294 31.3153 29.0507 32.8348 30.926C34.2222 32.6368 36.039 33.6567 38.054 34.4792C40.961 35.6636 43.7027 37.177 46.1471 39.2168C47.5345 40.4012 49.1201 41.2237 50.8709 41.8159C52.1591 42.2436 53.4144 42.8358 54.6366 43.428C55.7928 43.9873 56.8829 44.6782 57.973 45.3362C59.4594 46.2245 60.9129 47.1457 62.3664 48.0669C62.8949 48.3959 63.4234 48.8236 63.9519 49.1526C66.0991 50.4028 67.1892 52.2452 67.0901 54.7127C67.024 56.0287 67.7838 56.7196 68.7087 57.4763C69.006 56.7525 69.3033 56.1274 69.4685 55.4694C69.5676 55.0746 69.6006 54.5811 69.5015 54.1863C69.1381 53.0677 68.6426 52.0149 68.3123 50.9292C68.015 49.9422 67.4204 49.2842 66.5946 48.692C65.7688 48.1327 64.976 47.5076 64.2162 46.8496C63.8198 46.4877 63.5555 45.9942 63.9189 45.4349C64.2823 44.9085 64.8108 44.9743 65.3063 45.2046C66.5946 45.7639 67.7838 46.5535 68.7087 47.6392C69.006 48.0011 69.2042 48.4617 69.4024 48.8894C70.03 50.4028 70.6246 51.9162 71.2853 53.4296C71.8468 54.6798 71.979 55.8971 71.3513 57.1473C70.8559 58.1014 70.3273 59.0555 69.7327 59.9438C69.006 60.9966 68.2462 60.8979 67.6847 59.7464C67.3874 59.1213 67.057 58.4304 66.5616 57.904C65.7688 57.0486 65.2402 56.0945 65.0751 54.943C64.8108 53.2651 63.7868 52.2452 62.3003 51.4556C59.7898 50.1067 57.4114 48.5275 55 47.0141C54.4715 46.6851 53.976 46.1916 53.6126 45.6981C52.7207 44.4808 51.4655 43.8228 50.0781 43.2964C48.6576 42.7371 47.2372 42.1778 45.8829 41.454C44.1652 40.5328 42.3483 39.9077 40.4655 39.4471C39.4414 39.1839 38.4174 38.9536 37.3934 38.7233C34.1561 38.0653 31.5465 36.4861 29.6967 33.7554C28.8378 32.4723 27.6817 31.7156 26.2282 31.2879C25.7988 31.1563 25.4024 31.0247 24.973 30.926C22.3633 30.2022 20.018 29.0507 18.003 27.2412C16.5165 25.8594 14.7988 24.7737 13.0811 23.7538C12.3543 23.3261 11.6276 22.7997 11.1982 22.1088C10.4384 20.8257 9.34833 20.0361 7.86185 19.3452C7.72972 19.5426 7.53152 19.8058 7.33332 20.069C6.83782 20.8257 6.27626 21.5495 5.8138 22.3391C2.44443 27.965 2.2132 33.7883 5.02101 39.7103C5.6156 40.9605 6.27626 42.1449 6.90389 43.3622C7.03602 43.5925 7.20119 43.7899 7.46545 44.1847C7.46545 43.428 7.46545 42.9016 7.46545 42.4081C8.32431 42.5726 8.42341 42.5726 8.65464 43.2635C9.05104 44.3821 9.34833 45.5665 9.64563 46.718C10.0751 48.2972 11.4624 50.2383 13.015 51.2911C12.7507 50.6989 12.5525 50.2383 12.3213 49.7777C11.9579 49.021 11.5615 48.2972 11.2312 47.5076C10.967 46.8496 10.9009 46.1916 11.5615 45.5665C10.5375 44.2176 9.57957 42.77 8.45644 41.5527C6.37536 39.2497 5.54954 36.4861 5.28527 33.5251C5.15314 31.7814 5.25224 30.0048 5.25224 28.2282C5.25224 27.9979 5.35134 27.7347 5.45044 27.4057C5.97896 27.8005 5.87987 28.2611 5.94593 28.6559C6.1111 30.3996 6.2102 32.1762 6.47446 33.9199C6.87086 36.3874 7.69668 38.6246 9.6126 40.4012C10.8018 41.4869 11.9579 42.6055 13.048 43.7899C15.988 47.047 19.3904 49.8106 22.6937 52.7058C22.8919 52.9032 23.1561 53.0677 23.3213 53.2651C23.6847 53.7586 23.3874 54.3837 22.7928 54.3837C22.3633 54.3837 21.9009 54.285 21.5375 54.0876C20.6787 53.6928 19.9189 53.1664 19.1591 52.64C18.6967 52.3439 18.2673 52.0478 17.8048 51.7517C17.7387 51.8175 17.6727 51.8504 17.6066 51.9162C18.1351 53.0677 18.7958 54.1534 19.2252 55.3378C20.051 57.5092 22.0661 58.0356 23.8498 58.9568C23.6186 58.4304 23.2883 57.9698 22.991 57.5092C22.7267 57.1144 22.4625 56.6867 22.2973 56.259C22.1321 55.7655 21.967 55.1733 22.5285 54.8443C23.1231 54.5153 23.5195 54.9759 23.8168 55.4036C24.1141 55.7984 24.2793 56.259 24.5435 56.6538C25.3033 57.8382 25.997 59.0555 26.8558 60.1741C27.6817 61.2598 29.036 61.4572 30.3573 62.0165C29.8288 60.3386 28.1441 59.2529 28.8709 57.4105C27.8799 56.7854 26.9219 56.2261 26.5916 55.0417C27.5495 54.5811 27.5495 54.5811 28.7387 54.9759C33.9579 56.6538 39.1441 58.3646 44.3634 60.0096C46.6096 60.7334 48.8889 61.4243 51.2012 62.0165C51.961 62.2139 52.7868 62.3126 53.5796 62.2139C54.5706 62.1152 55.5616 61.852 56.5195 61.5559C59.5255 60.6347 62.6306 60.207 65.7357 59.7464C65.8679 59.7135 66 59.6806 66.0991 59.7135C66.3634 59.8451 66.7928 59.9767 66.8258 60.1741C66.8919 60.4702 66.7267 60.865 66.4955 61.0953C66.2643 61.3256 65.8679 61.4572 65.5375 61.5559C64.7447 61.8191 63.9189 61.9836 63.0931 62.2797C61.1441 62.9377 59.1622 63.1022 57.1471 62.9377C55.3964 62.8061 53.6126 62.6745 51.8619 62.7074C50.1772 62.7403 48.4925 62.7403 46.8408 62.2468C46.5105 62.1481 46.1471 62.0823 45.7838 62.0494C42.9429 61.6875 40.1351 61.1282 37.3934 60.2728C37.1622 60.207 36.9309 60.1741 36.4024 60.0754C37.4925 61.1611 38.3844 62.0494 39.2763 62.8719C39.6396 63.2009 40.003 63.497 40.4324 63.7273C41.027 64.0563 41.4895 64.4511 41.4564 65.2407C46.1471 66.3922 50.7718 67.1489 55.5616 66.9186C55.3303 66.7541 55.0991 66.6554 54.8348 66.5567C54.042 66.2935 53.2162 66.0632 52.4564 65.7013C51.9279 65.471 51.4324 65.0433 51.003 64.6485C50.8378 64.5169 50.8048 64.1221 50.9039 63.8918C50.97 63.7273 51.3333 63.5628 51.4985 63.6286C52.1591 63.7931 52.8198 63.9905 53.4474 64.2208C54.6366 64.6814 55.8258 65.1749 57.015 65.6355C57.973 66.0303 58.997 66.129 59.988 66.3922C60.8468 66.6225 61.8709 66.0632 62.7297 65.4381C62.1351 65.3394 61.5405 65.3394 60.979 65.3394C60.5495 65.3394 60.0871 65.3394 59.6576 65.2407C58.9309 65.0762 58.4354 64.5169 58.5015 64.0234C58.5676 63.497 59.0631 63.3654 60.021 63.497C61.1111 63.6615 62.2342 63.7602 63.2913 63.8918C63.8198 62.9048 63.8198 62.9048 64.7117 63.1022C65.3063 63.2009 65.9009 63.2667 66.4955 63.3654C67.0901 63.4641 67.5856 63.3325 68.048 62.9377C69.2372 61.9836 70.4925 61.0953 71.6817 60.1412C74.1261 58.1343 75.976 55.6668 77 52.6729C77.5285 51.1266 77.8258 49.4816 78.1561 47.8695C78.8498 44.2505 78.8829 40.5986 78.024 37.0125C77.5616 35.0714 76.7688 33.2619 75.5796 31.6827C72.7387 27.9979 69.8649 24.346 66.9579 20.6941C65.3724 18.6872 63.8198 16.5816 62.036 14.7721C57.5766 10.199 52.1591 7.10642 46.2132 4.90212C43.6036 3.91513 40.8288 3.61903 38.054 3.29003C37.7567 3.25713 37.4594 3.29003 37.1291 3.29003C37.5255 5.39562 37.9219 7.36962 38.3183 9.31072C38.3844 9.63972 38.4504 9.93582 38.4174 10.2648C38.3844 10.4622 38.2192 10.7583 38.054 10.8241C37.8889 10.8899 37.5585 10.7583 37.4594 10.5938C37.2282 10.2648 37.063 9.90292 36.964 9.50812C36.3694 7.56702 35.9069 5.52722 35.3453 3.25713ZM33.0991 19.9374C33.1321 20.069 33.1321 20.0361 33.0991 20.0032C33.0661 19.9045 33.033 19.8387 32.967 19.8058C31.7117 19.1478 30.5555 18.5227 28.9369 18.6543C26.3934 18.8517 23.9489 19.2794 21.5375 20.2335C20.6787 20.5625 19.6877 20.8257 18.7627 20.8586C16.4174 20.9244 14.2703 20.1019 12.1561 19.1807C11.6937 18.9833 11.2973 18.6543 11.3633 18.095C11.4294 17.5028 11.8588 17.2067 12.4204 17.0751C12.9159 16.9435 13.4114 16.8777 14.0721 16.7461C13.7087 16.0881 13.3784 15.5617 13.0811 15.0353C11.1321 16.2197 9.3153 17.5686 8.98497 18.753C9.18317 18.9175 9.4144 19.1478 9.67867 19.3123C10.5706 19.8387 11.4624 20.3651 12.3874 20.8586C12.7838 21.056 13.2132 21.1876 13.6096 21.3521C14.5676 21.714 15.5916 22.0101 16.5165 22.4707C17.5405 22.9971 18.5315 23.0958 19.6546 23.03C21.3063 22.9313 22.9579 22.8326 24.6096 22.9313C26.4925 23.03 28.1441 22.6023 29.7297 21.5824C30.7537 20.9244 31.9429 20.4967 33.0991 19.9374ZM15.03 16.4171C16.3513 16.121 17.5075 15.6275 18.4324 14.7721C19.1591 14.1141 19.1922 13.9167 18.7297 13.0284C18.3333 12.2388 18.1682 11.4492 18.4324 10.5938C18.5315 10.199 18.6967 9.83712 18.8618 9.31072C18.3994 9.37652 18.036 9.37652 17.7387 9.50812C16.8799 9.96872 16.021 10.3964 15.2282 10.9228C14.2042 11.6137 13.8739 12.6994 14.2042 13.8509C14.4685 14.6734 14.7327 15.463 15.03 16.4171ZM30.1591 57.9369C30.7868 59.3187 31.3814 60.4702 31.8438 61.6546C32.1742 62.51 32.7357 63.0364 33.6276 63.2667C34.1561 63.3983 34.6847 63.6615 35.2132 63.826C36.006 64.0563 36.8318 64.2537 37.6576 64.484C37.4264 64.0234 37.1291 63.7931 36.8318 63.5299C36.2372 62.9706 35.6096 62.4771 35.1141 61.852C34.2883 60.865 34.4204 60.4373 35.6426 59.7464C33.8258 59.1213 32.1081 58.562 30.1591 57.9369ZM17.0781 55.1733C17.1441 55.1075 17.1772 55.0417 17.2432 54.9759C17.1772 54.8443 17.1111 54.6798 17.045 54.5482C16.3844 53.4625 15.8228 52.3768 15.9549 51.0608C15.9549 50.8963 15.8889 50.666 15.7567 50.5344C14.964 49.7448 14.1712 48.9881 13.3453 48.1985C13.3123 48.3301 13.2793 48.4288 13.2793 48.4946C13.8078 50.1396 14.3694 51.7517 14.9309 53.3967C14.997 53.627 15.1291 53.8573 15.3273 53.9889C15.8889 54.3837 16.4835 54.7785 17.0781 55.1733ZM26.2612 16.3184C25.6667 15.8249 25.1712 15.3643 24.6096 14.9695C23.9159 14.476 23.7838 14.476 23.1892 15.1011C22.2312 16.0881 21.1411 16.779 19.8198 17.108C19.5886 17.1738 19.3573 17.3054 18.9279 17.4699C21.4384 17.0751 23.7507 16.7132 26.2612 16.3184Z" fill="#B89577" fill-opacity="0.5"/>
<path d="M44.2973 43.9873C42.7447 44.0202 41.4234 43.757 40.069 43.5267C38.2853 43.2306 36.7327 42.3752 35.1141 41.7172C33.4624 41.0263 31.9099 41.2566 30.6546 42.5397C29.2012 44.0202 27.4835 44.9743 25.5345 45.5665C24.4775 45.8955 23.4204 46.2574 22.1321 46.718C22.3633 46.1916 22.4294 45.731 22.6606 45.4349C23.1231 44.8756 23.6186 44.3492 24.1802 43.9215C25.2702 43.099 26.4264 42.3423 27.5165 41.5198C29.069 40.3683 30.7537 40.0064 32.6366 40.3354C34.5195 40.6644 36.3033 41.1908 38.054 41.8817C39.6066 42.4739 41.3243 42.7042 42.976 43.099C43.5045 43.1648 44 43.1648 44.2973 43.9873Z" fill="#B89577" fill-opacity="0.5"/>
<path d="M48.5916 66.0304C46.8408 65.7343 45.2222 65.1421 43.7027 64.188C43.3724 63.9906 43.1081 63.6287 42.9099 63.2997C42.6126 62.7733 42.8769 62.2798 43.4715 62.2798C43.9009 62.2798 44.3634 62.4114 44.7267 62.5759C46.1141 63.2668 47.5015 63.9906 48.8889 64.7144C49.021 64.7802 49.2192 64.846 49.2853 64.9447C49.4174 65.1092 49.6156 65.4053 49.5495 65.5369C49.4504 65.7343 49.1531 65.8659 48.9549 65.9975C48.8889 66.0962 48.7237 66.0304 48.5916 66.0304Z" fill="#B89577" fill-opacity="0.5"/>
<path d="M60.1531 19.6084C60.021 19.74 59.9219 20.0361 59.7237 20.1348C59.5916 20.2006 59.2943 20.0032 59.0961 19.9374C59.03 19.9045 58.997 19.8058 58.9639 19.74C58.3694 18.0621 57.8078 16.3513 57.2462 14.6405C57.1802 14.4102 57.2132 14.0483 57.3453 13.818C57.4775 13.5877 57.8078 13.3574 58.0721 13.2916C58.2372 13.2587 58.5675 13.5877 58.6336 13.7851C59.1291 15.6933 59.6246 17.5686 60.1531 19.6084Z" fill="#B89577" fill-opacity="0.5"/>
<path d="M55.3633 15.5618C55.2973 15.6934 55.1982 15.8908 55.0991 16.0882C54.8678 15.9566 54.5705 15.9237 54.4384 15.7263C54.2072 15.3644 54.0751 14.9367 53.9429 14.509C53.5796 13.2917 53.2162 12.1073 52.8528 10.9229C52.7868 10.6597 52.6877 10.3965 52.6546 10.1004C52.6216 9.6727 52.5886 9.1134 53.1171 9.0147C53.7117 8.8831 53.8108 9.4424 53.9429 9.8701C54.4054 11.5151 54.8348 13.193 55.2642 14.8709C55.2973 15.0354 55.2973 15.2328 55.3633 15.5618Z" fill="#B89577" fill-opacity="0.5"/>
<path d="M14.8979 41.816C14.1381 40.9606 13.4114 36.7165 13.5766 34.249C13.6096 33.8542 13.5766 33.4265 14.2703 33.262C14.4024 33.5581 14.6006 33.8542 14.6336 34.1832C14.8318 36.552 14.9639 38.8879 15.1291 41.2567C15.1291 41.3883 15.03 41.5528 14.8979 41.816Z" fill="#B89577" fill-opacity="0.5"/>
<path d="M64.5465 22.8984C64.6787 22.7339 64.8438 22.3062 65.0751 22.2733C65.3063 22.2404 65.7357 22.5365 65.8679 22.7997C66.5285 24.1815 67.0901 25.5633 67.6847 26.978C67.8168 27.307 67.9489 27.7347 67.5195 27.8992C67.3213 27.965 66.9579 27.8334 66.7928 27.6689C65.7688 26.3858 64.976 24.9382 64.5796 23.3261C64.5796 23.2603 64.5796 23.1616 64.5465 22.8984Z" fill="#B89577" fill-opacity="0.5"/>
<path d="M12.024 27.1096C12.0901 27.307 12.1892 27.5044 12.1892 27.7347C12.3874 30.7615 12.5526 33.8212 12.6517 36.848C12.024 36.0255 11.5285 32.4723 11.4625 28.5572C11.4625 28.0637 11.5946 27.6031 11.6607 27.1096C11.7598 27.1096 11.8919 27.1096 12.024 27.1096Z" fill="#B89577" fill-opacity="0.5"/>
<path d="M63.4895 23.4578C63.3573 23.6552 63.2252 23.9842 63.1591 23.9842C62.9279 23.9513 62.5976 23.7868 62.5315 23.6223C62.1021 22.1747 61.7057 20.6942 61.3423 19.2466C61.2432 18.8847 61.3093 18.4899 61.7387 18.3583C62.1681 18.2596 62.4324 18.5886 62.4985 18.9505C62.8288 20.431 63.1591 21.9115 63.4895 23.4578Z" fill="#B89577" fill-opacity="0.5"/>
<path d="M58.3363 25.5633C57.9069 25.2672 57.6096 25.1356 57.4444 24.9053C56.4534 23.6551 55.8588 22.2075 55.5285 20.6612C55.4955 20.4309 55.4624 20.1677 55.5285 19.9374C55.5615 19.7729 55.7597 19.5755 55.9249 19.5426C56.0901 19.5097 56.2883 19.6742 56.4204 19.7729C56.5195 19.8716 56.5525 20.069 56.6186 20.2006C57.1802 21.6482 57.7417 23.0958 58.2702 24.5763C58.3363 24.8066 58.3033 25.0369 58.3363 25.5633Z" fill="#B89577" fill-opacity="0.5"/>
<path d="M54.009 54.2192C53.7778 54.5153 53.6126 54.8772 53.3483 55.1404C52.4895 55.9958 51.5976 56.7854 50.7387 57.6079C50.6396 57.6737 50.5405 57.8053 50.4414 57.8382C50.1772 57.8711 49.8138 57.9369 49.7147 57.8053C49.5826 57.6408 49.6486 57.3118 49.7147 57.0486C49.7477 56.917 49.8799 56.7854 50.012 56.6867C51.1021 55.7984 52.1922 54.9101 53.2823 54.0547C53.4144 53.956 53.6456 53.9889 53.8108 53.9889C53.8769 54.0547 53.9429 54.1205 54.009 54.2192Z" fill="#B89577" fill-opacity="0.5"/>
<path d="M62.5976 28.4914C62.4324 28.4585 62.3003 28.4585 62.2673 28.4256C61.2432 27.2741 60.6817 25.8594 60.2522 24.4118C60.1862 24.2144 60.4174 23.8854 60.6156 23.7538C60.7147 23.688 61.1441 23.8196 61.2102 23.9512C61.7718 25.333 62.3003 26.7477 62.8288 28.1624C62.8288 28.2282 62.6967 28.3598 62.5976 28.4914Z" fill="#B89577" fill-opacity="0.5"/>
<path d="M71.7808 32.4724C72.3423 33.1633 73.5315 38.1312 73.4985 39.6117C73.3003 39.3814 73.1021 39.2827 73.036 39.1182C72.4745 37.3745 71.979 35.6308 71.4504 33.8542C71.2853 33.3278 71.3183 32.8672 71.7808 32.4724Z" fill="#B89577" fill-opacity="0.5"/>
<path d="M39.4745 4.54028C39.6727 4.67188 39.8378 4.73768 40.003 4.86928C41.0601 5.56018 42.1171 6.28398 43.1742 6.97488C43.2733 7.04068 43.4054 7.10648 43.4715 7.17228C43.5375 7.30388 43.6366 7.53418 43.6036 7.56708C43.5045 7.69868 43.2733 7.83028 43.1411 7.79738C41.5886 7.36968 40.2673 6.58008 39.1772 5.42858C39.045 5.29698 39.045 5.00088 39.0781 4.77058C39.1111 4.67188 39.3093 4.60608 39.4745 4.54028Z" fill="#B89577" fill-opacity="0.5"/>
<path d="M49.3183 11.2517C48.3273 9.63965 47.3694 8.12625 46.4114 6.57995C46.3123 6.44835 46.4444 6.15225 46.5105 5.69165C47.9309 6.97475 48.6246 8.48815 49.3844 9.93575C49.5826 10.2647 49.8468 10.6924 49.3183 11.2517Z" fill="#B89577" fill-opacity="0.5"/>
<path d="M32.2402 9.4423C30.9519 8.7185 30.1591 6.3168 30.5555 4.9021C31.3483 5.4943 31.1832 6.4155 31.4474 7.1393C31.7778 7.896 31.976 8.6856 32.2402 9.4423Z" fill="#B89577" fill-opacity="0.5"/>
<path d="M16.7808 41.8817C16.021 40.3683 15.4264 38.822 15.2282 37.1441C15.3273 37.1112 15.4264 37.0783 15.5255 37.0454C16.021 38.6246 16.5495 40.2367 17.045 41.8159C16.9459 41.8488 16.8799 41.8488 16.7808 41.8817Z" fill="#B89577" fill-opacity="0.5"/>
<path d="M70.2612 32.5382C69.1381 31.5183 68.7417 29.972 69.4024 28.7876C69.6997 30.1036 69.9639 31.2551 70.2612 32.5382Z" fill="#B89577" fill-opacity="0.5"/>
<path d="M35.6096 8.75152C34.6847 7.43552 33.8258 6.25112 32.8348 4.83643C33.991 5.36283 35.3784 7.40262 35.6096 8.75152Z" fill="#B89577" fill-opacity="0.5"/>
<path d="M72.6396 43.2307C72.6727 43.5268 72.7057 43.6584 72.6727 43.7571C72.5736 44.4809 72.4414 45.2376 72.3423 45.9943C71.8138 45.2705 71.9129 44.4809 72.6396 43.2307Z" fill="#B89577" fill-opacity="0.5"/>
</g>
<defs>
<clipPath id="clip0_82_73">
<rect width="154" height="124" fill="white"/>
</clipPath>
</defs>
</svg>
